# xmcd
#
# Track frame offsets:
#	150
#	14396
#	28642
#
# Disc length: 567 seconds
# Revision: 0
# Processed by: cddbd v1.5.2PL0 Copyright (c) Steve Scherf et al.
# Submitted via: dBpowerAMP V12.0
#
DISCID=19023503
DTITLE=Various Artist - Somewhere Else [Single]
DYEAR=2013
DGENRE=Pop/Rock
TTITLE0=Tori Hathaway - Christmas Without You
TTITLE1=Tori Hathaway - Christmas Without You [Country Version]
TTITLE2=Toby Keith - Christmas Without You [Acoustic Version]
EXTD=
EXTT0=
EXTT1=
EXTT2=
PLAYORDER=
